<svg width="20" height="22" viewBox="0 0 20 22" fill="none" xmlns="http://www.w3.org/2000/svg">
<path fill-rule="evenodd" clip-rule="evenodd" d="M11.9529 3.47703C10.7989 2.99904 9.55051 2.79293 8.30419 2.87461C7.05786 2.95631 5.84702 3.32361 4.76534 3.94811L3.67397 4.57821L2.41378 2.39549L3.50515 1.76539C4.92163 0.947597 6.50725 0.466589 8.13934 0.359627C9.77145 0.252646 11.4063 0.522561 12.9174 1.14847C14.4285 1.7744 15.7753 2.73954 16.8538 3.96926C17.9321 5.19896 18.7133 6.66029 19.1367 8.24017C19.5599 9.82003 19.6142 11.4761 19.2951 13.0803C18.976 14.6845 18.2922 16.1938 17.2964 17.4914C16.3007 18.789 15.0199 19.8402 13.553 20.5635C12.086 21.2869 10.1939 21.6632 8.83675 21.6632C7.47956 21.6632 6.68709 21.4596 5.64638 21.0287C4.63492 20.6097 3.71591 19.9957 2.94176 19.2215C2.16763 18.4474 1.55356 17.5282 1.1346 16.5168C0.715649 15.5054 0.5 14.4213 0.5 13.3265C0.5 12.2317 0.715649 11.1477 1.1346 10.1362C1.55356 9.12475 2.16763 8.20572 2.94176 7.43159C3.71591 6.65746 4.63492 6.04337 5.64638 5.62442C6.65783 5.20546 7.74191 4.98983 8.83669 4.98983C9.9315 4.98983 11.0156 5.20546 12.027 5.62442C13.0385 6.04337 13.9575 6.65746 14.7316 7.43159C15.5058 8.20572 16.1198 9.12475 16.5388 10.1362C16.7191 10.5713 16.8616 11.0198 16.9657 11.4768C17.0165 10.6092 16.9283 9.73661 16.7022 8.89249C16.3788 7.68603 15.7824 6.57012 14.9589 5.63107C14.1353 4.69201 13.1068 3.95499 11.9529 3.47703ZM3.80315 16.2407C3.9461 13.5312 6.18844 11.3781 8.93363 11.3781C11.5727 11.3781 13.7471 13.3679 14.0382 15.9291C14.0999 15.8058 14.1573 15.6801 14.2103 15.5523C14.5026 14.8467 14.653 14.0903 14.653 13.3265C14.653 12.5627 14.5026 11.8064 14.2103 11.1007C13.918 10.395 13.4895 9.75388 12.9494 9.21378C12.4094 8.67368 11.7682 8.24527 11.0625 7.95296C10.3568 7.66067 9.60051 7.51022 8.83669 7.51022C8.0729 7.51022 7.31657 7.66067 6.61089 7.95296C5.90524 8.24527 5.26405 8.67368 4.72395 9.21378C4.18387 9.75388 3.75544 10.395 3.46313 11.1007C3.17084 11.8064 3.0204 12.5627 3.0204 13.3265C3.0204 14.0903 3.17084 14.8467 3.46313 15.5523C3.56141 15.7895 3.67504 16.0195 3.80315 16.2407ZM11.551 16.5158C11.551 17.9613 10.3792 19.1331 8.93363 19.1331C7.48813 19.1331 6.3163 17.9613 6.3163 16.5158C6.3163 15.0703 7.48813 13.8985 8.93363 13.8985C10.3792 13.8985 11.551 15.0703 11.551 16.5158Z" fill="#0090F1"/>
</svg>
