<svg width="28" height="20" viewBox="0 0 28 20" fill="none" xmlns="http://www.w3.org/2000/svg">
<path d="M27.3376 7.07126C27.9032 7.63685 27.9032 8.55384 27.3376 9.11941L17.0619 19.3951C16.4964 19.9607 15.5794 19.9607 15.0139 19.3951L8.54724 12.9286C7.98165 12.3631 7.98165 11.446 8.54724 10.8805L18.823 0.604738C19.3886 0.0391433 20.3056 0.0391433 20.8711 0.604738L27.3376 7.07126Z" fill="#4A6DFF"/>
<path d="M19.4524 7.07132C20.0179 7.63691 20.0179 8.5539 19.4524 9.11947L9.17667 19.3952C8.61109 19.9607 7.6941 19.9607 7.12851 19.3952L0.661989 12.9287C0.0963942 12.3632 0.0963942 11.4461 0.661989 10.8805L10.9377 0.604799C11.5033 0.0392043 12.4203 0.0392043 12.9859 0.604799L19.4524 7.07132Z" fill="#2EB9FF"/>
</svg>
