<svg width="22" height="22" viewBox="0 0 22 22" fill="none" xmlns="http://www.w3.org/2000/svg">
<path d="M13.4272 4.41124C13.4272 2.11302 15.2904 0.249939 17.5885 0.249939C19.8867 0.249939 21.7498 2.11302 21.7498 4.41124C21.7498 6.70945 19.8867 8.57254 17.5885 8.57254C15.2904 8.57254 13.4272 6.70945 13.4272 4.41124Z" fill="#FF2C2C"/>
<path d="M17.8407 10.4167V13.4112C17.8407 14.738 17.8398 15.6766 17.779 16.4099C17.7191 17.1319 17.6056 17.5718 17.4262 17.9167C17.0771 18.5888 16.5292 19.1369 15.8569 19.486C15.512 19.6654 15.072 19.7789 14.3501 19.8388C13.6167 19.8996 12.6781 19.9005 11.3515 19.9005H8.58857C7.26186 19.9005 6.32335 19.8996 5.59013 19.8388C4.86798 19.7789 4.4282 19.6654 4.08316 19.486C3.41101 19.1369 2.86297 18.5888 2.51382 17.9167C2.33458 17.5718 2.22109 17.1319 2.1611 16.4099C2.10023 15.6766 2.09947 14.738 2.09947 13.4112V10.6484C2.09947 9.32165 2.10023 8.38314 2.1611 7.64992C2.22109 6.92777 2.33458 6.48799 2.51382 6.14295C2.86297 5.47081 3.41101 4.92277 4.08316 4.57361C4.4282 4.39437 4.86798 4.28089 5.59013 4.22092C6.32335 4.16002 7.26184 4.15928 8.58857 4.15928H11.5832C11.6099 3.51102 11.7393 2.88925 11.9555 2.30982H8.54745C7.27111 2.30979 6.25579 2.30979 5.43706 2.37778C4.59849 2.44742 3.88362 2.59315 3.2306 2.93237C2.22065 3.45699 1.3972 4.28047 0.872577 5.29042C0.533362 5.94342 0.387624 6.65828 0.317991 7.49685C0.25 8.31559 0.25 9.3309 0.25 10.6072V13.4523C0.25 14.7287 0.25 15.7441 0.317991 16.5629C0.387624 17.4014 0.533362 18.1162 0.872577 18.7693C1.3972 19.7791 2.22065 20.6026 3.2306 21.1274C3.88362 21.4665 4.59849 21.6122 5.43706 21.682C6.25579 21.75 7.27106 21.75 8.5474 21.75H11.3926C12.6689 21.75 13.6842 21.75 14.5031 21.682C15.3416 21.6122 16.0564 21.4665 16.7095 21.1274C17.7193 20.6026 18.5428 19.7791 19.0676 18.7693C19.4067 18.1162 19.5524 17.4014 19.6222 16.5629C19.6902 15.7441 19.6902 14.7287 19.6902 13.4526V10.0444C19.1106 10.2606 18.4889 10.39 17.8407 10.4167Z" fill="black"/>
</svg>
