<svg width="28" height="29" viewBox="0 0 28 29" fill="none" xmlns="http://www.w3.org/2000/svg">
<path d="M5.25 0V1.25H0.25V28.75H27.75V1.25H22.75V0H20.25V1.25H7.75V0H5.25ZM2.75 3.75H5.25V5H7.75V3.75H20.25V5H22.75V3.75H25.25V6.25H2.75V3.75ZM2.75 8.75H25.25V26.25H2.75V8.75ZM10.25 11.25V13.75H12.75V11.25H10.25ZM15.25 11.25V13.75H17.75V11.25H15.25ZM20.25 11.25V13.75H22.75V11.25H20.25ZM5.25 16.25V18.75H7.75V16.25H5.25ZM10.25 16.25V18.75H12.75V16.25H10.25ZM15.25 16.25V18.75H17.75V16.25H15.25ZM20.25 16.25V18.75H22.75V16.25H20.25ZM5.25 21.25V23.75H22.75V21.25H5.25Z" fill="white"/>
</svg>
