<svg width="20" height="22" viewBox="0 0 20 22" fill="none" xmlns="http://www.w3.org/2000/svg">
<path fill-rule="evenodd" clip-rule="evenodd" d="M10.6205 0.787256C10.2927 0.597607 9.88845 0.597607 9.56062 0.787256C7.23207 2.13425 5.66155 4.6545 5.66155 7.54282C5.66155 7.95447 5.69347 8.35865 5.75492 8.75303C4.15196 8.20865 2.41633 8.40676 0.998694 9.22365C0.670541 9.41272 0.468428 9.76277 0.46875 10.1415C0.470429 12.1395 1.50838 14.0869 3.36729 15.1601C4.27924 15.6867 5.27462 15.9369 6.25646 15.9374C6.10708 16.3605 6.02581 16.8161 6.02581 17.2905C6.02581 19.5353 7.8456 21.355 10.0904 21.355C12.3353 21.355 14.155 19.5353 14.155 17.2905C14.155 16.8149 14.0733 16.3587 13.9234 15.9346C14.8467 15.9054 15.7767 15.6548 16.633 15.1601C18.492 14.0869 19.5298 12.1396 19.5314 10.1416C19.5319 9.76286 19.3298 9.41281 19.0016 9.22372C17.6398 8.43902 15.9845 8.2253 14.4355 8.69223C14.4909 8.31714 14.5195 7.93334 14.5195 7.54282C14.5195 4.6545 12.9491 2.13425 10.6205 0.787256ZM7.7782 7.54282C7.7782 5.66722 8.68636 4.00274 10.0905 2.96668C11.4948 4.00274 12.4029 5.66722 12.4029 7.54282C12.4029 9.4184 11.4948 11.0829 10.0905 12.1189C8.68636 11.0829 7.7782 9.4184 7.7782 7.54282ZM14.2644 11.0577C15.2418 10.4934 16.3711 10.4278 17.3576 10.7848C17.1737 11.8177 16.5521 12.7628 15.5748 13.3271C14.5974 13.8914 13.4681 13.957 12.4816 13.6001C12.6655 12.5671 13.2871 11.622 14.2644 11.0577ZM2.64273 10.7847C3.62921 10.4277 4.7585 10.4933 5.73585 11.0576C6.71323 11.6219 7.33472 12.5671 7.51876 13.5998C6.53225 13.957 5.40296 13.8914 4.42561 13.3271C3.44826 12.7628 2.82674 11.8176 2.64273 10.7847ZM8.14246 17.2905C8.14246 16.2147 9.01458 15.3425 10.0904 15.3425C11.1662 15.3425 12.0384 16.2147 12.0384 17.2905C12.0384 18.3662 11.1662 19.2385 10.0904 19.2385C9.01458 19.2385 8.14246 18.3662 8.14246 17.2905Z" fill="#22B24B"/>
</svg>
